<?xml version="1.0" encoding="utf-8"?>
<!-- Generator: Adobe Illustrator 23.0.2, SVG Export Plug-In . SVG Version: 6.00 Build 0)  -->
<svg version="1.1" xmlns="http://www.w3.org/2000/svg" xmlns:xlink="http://www.w3.org/1999/xlink" x="0px" y="0px"
	 viewBox="0 0 343.05 138.86" style="enable-background:new 0 0 343.05 138.86;" xml:space="preserve">
<style type="text/css">
	.st0{display:none;}
	.st1{display:inline;}
	.st2{fill:#FFFFFF;}
</style>
<g id="black" class="st0">
	<g class="st1">
		<path d="M186.16,76.84c0.01,0.16,0.02,0.33,0.02,0.49c-0.01,1.86-0.63,3.42-1.87,4.69c-1.23,1.26-2.77,1.9-4.62,1.9
			c-1.95,0-3.58-0.65-4.88-1.94c-1.31-1.29-1.96-2.9-1.96-4.81c0-1.91,0.67-3.53,2-4.85s2.97-1.98,4.92-1.98
			c0.63,0,1.23,0.07,1.79,0.21c0.57,0.14,1.03,0.3,1.4,0.49c0.36,0.19,0.68,0.38,0.96,0.58c0.28,0.19,0.48,0.36,0.6,0.5l0.19,0.21
			l-1.51,1.53c-0.04-0.04-0.09-0.09-0.15-0.16c-0.06-0.07-0.2-0.19-0.42-0.37c-0.21-0.18-0.45-0.33-0.7-0.46
			c-0.25-0.13-0.58-0.25-0.97-0.36c-0.4-0.11-0.81-0.16-1.23-0.16c-1.35,0-2.47,0.46-3.37,1.38c-0.9,0.92-1.35,2.06-1.35,3.43
			s0.45,2.51,1.35,3.43c0.9,0.92,2.02,1.38,3.37,1.38c1.08,0,2.01-0.32,2.79-0.96s1.25-1.49,1.41-2.55h-4.28v-1.6H186.16z"/>
		<path d="M192.5,83.73v-13.2h5.69c1.36,0,2.46,0.39,3.31,1.16s1.27,1.77,1.27,2.99c0,0.94-0.27,1.77-0.82,2.48
			s-1.29,1.19-2.22,1.44l3.6,5.13h-2.55l-3.33-4.85h-2.79v4.85H192.5z M197.93,72.38h-3.26v4.81h3.26c0.82,0,1.47-0.23,1.95-0.68
			c0.48-0.45,0.73-1.03,0.73-1.73s-0.24-1.28-0.73-1.73C199.39,72.6,198.74,72.38,197.93,72.38z"/>
		<path d="M218.89,83.73h-9.62v-13.2h9.43v1.89h-7.26v3.6h6.32v1.77h-6.32v4.05h7.45V83.73z"/>
		<path d="M234.83,83.73h-9.62v-13.2h9.43v1.89h-7.26v3.6h6.32v1.77h-6.32v4.05h7.45V83.73z"/>
		<path d="M250.53,83.73l-7.26-9.97v9.97h-2.13v-13.2h2.28l7.11,9.77v-9.77h2.11v13.2H250.53z"/>
		<path d="M263.55,83.73l-5.43-13.2h2.43l4.14,10.4l4.12-10.4h2.32l-5.41,13.2H263.55z"/>
		<path d="M276.69,83.73v-13.2h2.24v13.2H276.69z"/>
		<path d="M286.1,70.53h5.66c1.21,0,2.18,0.31,2.91,0.93c0.74,0.62,1.1,1.42,1.1,2.39c0,0.64-0.17,1.22-0.52,1.74
			s-0.82,0.93-1.42,1.22c0.79,0.24,1.41,0.65,1.87,1.23c0.45,0.58,0.68,1.27,0.68,2.06c0,1.03-0.4,1.89-1.21,2.58
			c-0.8,0.69-1.84,1.04-3.09,1.04h-5.98V70.53z M288.26,76.11h3.05c0.69,0,1.24-0.19,1.66-0.56c0.41-0.37,0.62-0.83,0.62-1.39
			c0-0.54-0.21-1-0.62-1.38c-0.42-0.38-0.97-0.57-1.66-0.57h-3.05V76.11z M288.26,77.69v4.34h3.45c0.75,0,1.36-0.21,1.81-0.62
			c0.45-0.41,0.68-0.93,0.68-1.55c0-0.62-0.23-1.13-0.68-1.55c-0.45-0.42-1.06-0.62-1.81-0.62H288.26z"/>
		<path d="M312.4,83.73h-9.62v-13.2h9.43v1.89h-7.26v3.6h6.32v1.77h-6.32v4.05h7.45V83.73z"/>
		<path d="M323.04,76.03c2.59,0.91,3.88,2.26,3.88,4.07c0,1.09-0.42,2-1.25,2.72c-0.84,0.72-1.95,1.08-3.33,1.08
			c-0.59,0-1.16-0.07-1.72-0.2c-0.55-0.13-1.01-0.29-1.38-0.47c-0.36-0.18-0.69-0.36-0.96-0.55c-0.28-0.18-0.48-0.34-0.6-0.48
			l-0.19-0.19l1.3-1.4c0.11,0.11,0.27,0.25,0.46,0.41c0.2,0.16,0.62,0.38,1.26,0.66c0.65,0.28,1.3,0.42,1.97,0.42
			c0.65,0,1.19-0.17,1.6-0.51s0.62-0.76,0.62-1.26c0-0.57-0.24-1.05-0.71-1.46c-0.47-0.41-1.32-0.83-2.55-1.27
			c-2.2-0.82-3.3-2.05-3.3-3.7c0-1.03,0.41-1.89,1.22-2.56s1.87-1.02,3.18-1.02c0.52,0,1.02,0.06,1.51,0.17
			c0.49,0.11,0.9,0.25,1.22,0.4s0.6,0.31,0.85,0.46s0.42,0.29,0.54,0.41l0.17,0.17l-1.3,1.41c-0.09-0.09-0.21-0.2-0.37-0.34
			s-0.49-0.32-1-0.55c-0.51-0.23-1.03-0.34-1.58-0.34c-0.69,0-1.23,0.16-1.62,0.49c-0.39,0.33-0.58,0.7-0.58,1.11
			c0,0.49,0.2,0.91,0.59,1.25C321.37,75.33,322.05,75.68,323.04,76.03z"/>
	</g>
	<g class="st1">
		<path d="M83.34,66.54V33.19h14.44c3.75,0,6.77,1.04,9.05,3.12c2.29,2.08,3.43,4.8,3.43,8.17c0,3.33-1.18,6.08-3.55,8.24
			c-2.37,2.16-5.42,3.24-9.17,3.24h-6.91v10.58H83.34z M97.06,39.33h-6.43v10.67h6.43c1.78,0,3.22-0.5,4.31-1.5s1.64-2.28,1.64-3.84
			c0-1.56-0.55-2.83-1.64-3.84S98.84,39.33,97.06,39.33z"/>
		<path d="M139.56,66.54h-23.58V33.19h7.29v26.87h16.29V66.54z"/>
		<path d="M161.95,33.19l13.1,33.35h-7.97l-2.61-7h-13.44l-2.68,7h-7.61l13.37-33.35H161.95z M157.71,41.53l-4.67,12.24h9.29
			L157.71,41.53z"/>
		<path d="M201.78,66.54l-15.82-22.49v22.49h-7.1V33.19h7.55l15.36,21.92V33.19h7.1v33.35H201.78z"/>
		<path d="M240.08,39.52h-9.72v27.01h-7.24V39.52h-9.72v-6.34h26.68V39.52z"/>
		<path d="M244.85,66.54V33.19h7.48v33.35H244.85z"/>
		<path d="M283.1,66.54l-15.82-22.49v22.49h-7.1V33.19h7.55l15.36,21.92V33.19h7.1v33.35H283.1z"/>
		<path d="M313.31,48.43h16.58c0.06,0.6,0.1,1.22,0.1,1.86c-0.03,4.73-1.58,8.7-4.65,11.91c-3.07,3.21-7,4.81-11.79,4.81
			c-4.95,0-9.09-1.64-12.41-4.91c-3.32-3.27-4.98-7.32-4.98-12.15c0-4.83,1.7-8.91,5.1-12.24c3.4-3.33,7.58-5,12.53-5
			c1.65,0,3.22,0.18,4.69,0.52c1.48,0.35,2.68,0.78,3.62,1.29c0.94,0.51,1.76,1.02,2.48,1.52c0.71,0.51,1.23,0.94,1.55,1.29
			l0.43,0.52L321.5,43c-0.06-0.1-0.17-0.22-0.31-0.38c-0.14-0.16-0.46-0.45-0.95-0.88c-0.49-0.43-1.02-0.8-1.57-1.12
			c-0.56-0.32-1.29-0.6-2.19-0.86c-0.91-0.25-1.85-0.38-2.83-0.38c-2.95,0-5.4,1-7.34,3c-1.94,2-2.91,4.51-2.91,7.53
			c0,3.02,0.97,5.53,2.91,7.55c1.94,2.02,4.38,3.03,7.34,3.03c2.32,0,4.27-0.61,5.86-1.83c1.59-1.22,2.59-2.88,3-4.98h-9.2V48.43z"
			/>
	</g>
	<path class="st1" d="M66.6,124.03c-2.42-0.95-5.08-1.53-7.22-2.91c-13.49-8.68-26.89-17.5-40.25-26.39
		c-1.76-1.17-3.28-2.81-4.61-4.48c-1.51-1.9-1.94-4.18-1.13-6.59c1.2-3.57,4.99-5.59,9.16-4.76c1.67,0.33,3.3,0.89,4.56,1.24
		c1.31-1.79,2.31-3.65,3.77-5.03c2.76-2.6,6.21-2.56,9.68-1.79c0.63,0.14,1.09,0.19,1.52-0.44c1.21-1.79,2.76-3.19,4.84-3.84
		c-0.98-3.81-1.94-7.57-2.85-11.11c-1.81,0.12-3.64,0.56-5.37,0.29c-6.69-1.04-11.65-7.07-12.04-14.11
		c-0.38-6.74,1.9-12.57,5.92-17.78c6.15-7.97,14.45-13.04,23.48-17.06c1.64-0.73,3.23,0.47,3.09,2.32
		c-0.17,2.32,0.52,4.36,1.67,6.27c1.81,3.01,3.75,5.94,5.58,8.94c3.88,6.34,5.57,13.11,3.98,20.52
		c-1.48,6.91-7.07,11.81-14.12,12.11c-2.37,0.1-4.76-0.27-7.21-0.42c0.23,0.97,0.46,2.11,0.77,3.24c0.56,2.03,1.16,4.05,1.65,5.76
		c1.77,0.43,3.38,0.56,4.74,1.22c1.39,0.67,2.53,1.85,3.85,2.86c3.51-1.67,6.47-1.88,8.94,0.15c1.99,1.64,3.87,2.67,6.52,2.7
		c2.45,0.03,4.21,1.73,5.42,3.63c1.84-1.08,3.49-2.31,5.34-3.08c6.65-2.77,13.52-2.96,20.19-0.39c6.85,2.65,13.48,5.87,20.2,8.87
		c0.45,0.2,0.81,0.6,1.21,0.9c0,0.85,0,1.7,0,2.54c-1.13,1.2-2.32,1.14-3.78,0.47c-5.95-2.74-11.95-5.39-17.94-8.04
		c-4.92-2.18-10.04-2.11-15.2-1.19c-3.08,0.55-5.59,2.13-7.6,4.51c-2.09,2.48-4.51,4.44-7.67,5.41c-5.76,1.77-11.58,3.16-17.64,3.39
		c-1.41,0.05-2.84,0.4-4.2,0.81c-1.23,0.38-1.86,1.3-1.82,2.72c0.04,1.34,0.77,2.03,1.87,2.41c0.95,0.32,1.96,0.68,2.94,0.68
		c9.68,0.09,19.41,0.83,28.89-2.02c1.45-0.44,2.64,0.28,2.98,1.57c0.35,1.32-0.31,2.59-1.77,2.9c-3.72,0.78-7.44,1.78-11.21,2.05
		c-5.48,0.4-11.01,0.28-16.52,0.3c-3.65,0.01-6.93-0.79-10.07-3.07C42.43,95.4,35.4,90.9,28.43,86.31
		c-1.47-0.97-3.13-1.69-4.78-2.32c-1.04-0.4-2.22-0.56-3.35-0.59c-1.86-0.05-3.77,1.97-2.08,4.07c1.1,1.37,2.41,2.62,3.82,3.66
		c2.66,1.96,5.44,3.75,8.21,5.55c10.31,6.74,20.68,13.4,30.94,20.22c4.43,2.94,8.86,3.2,13.55,0.89c1.89-0.94,3.79-1.86,5.68-2.83
		c5.72-2.93,11.43-5.89,17.15-8.83c3.45-1.77,6.83-1.66,10.11,0.47c2.24,1.45,4.49,2.88,6.72,4.35c1.35,0.89,1.71,2.21,0.99,3.36
		c-0.75,1.2-2.15,1.41-3.56,0.52c-1.5-0.95-3.11-1.79-4.45-2.93c-3.28-2.79-6.35-2.45-10.09-0.56
		c-8.83,4.47-17.09,10.19-26.86,12.67C69.15,124.03,67.87,124.03,66.6,124.03z M34.18,32.65c-2.6,4.64-3.62,9.58-1.89,14.78
		c1.14,3.44,3.51,5.61,7.15,6.25c0.08,0.01,0.17,0.05,0.25,0.03c0.98-0.21,2.01-0.3,2.93-0.66c1.4-0.55,0.6-1.81,0.53-2.66
		c-0.79-8.97,0.9-17.52,4.16-25.83c0.4-1.02,1-1.91,2.13-1.88c0.71,0.02,1.54,0.45,2.07,0.95c0.75,0.72,0.46,1.67,0.18,2.61
		c-1.22,4.08-2.59,8.14-3.49,12.29c-0.99,4.53-0.91,9.18-0.21,13.78c0.07,0.48,0.49,1.11,0.91,1.3c4.15,1.79,8.33,1.86,12.35-0.28
		c3.26-1.74,4.31-4.93,4.87-8.33c0.98-5.93-0.78-11.21-3.86-16.16c-1.14-1.83-2.34-3.63-3.53-5.43c-1.69-2.55-3.2-5.18-3.85-8.34
		C46.54,19.4,38.86,24.29,34.18,32.65z M55.96,87.46c5.07-0.4,10.11-0.86,15-2.34c1.66-0.5,3.3-1.05,4.91-1.67
		c1.68-0.65,1.88-1.9,0.56-3.19c-1.26-1.25-2.86-1.15-4.42-0.94c-2.1,0.29-2.56,0.1-3.5-1.77c-1.16-2.32-4.88-2.81-7.07-0.94
		c-1.77,1.52-2.99,1.34-4.21-0.62c-1.54-2.49-3.56-3.28-6.44-2.61c-0.68,0.16-1.45-0.06-2.14,0.1c-1.65,0.39-2.87,1.38-3.63,2.92
		c-1.04,2.13-1.8,2.42-4.03,1.56c-3.95-1.53-7.11-0.53-8.65,2.72c-0.88,1.85-0.81,2.09,0.9,3.24c4.73,3.19,9.47,6.38,14.34,9.67
		C48.94,89.37,52.11,87.76,55.96,87.46z"/>
</g>
<g id="white">
	<g>
		<path class="st2" d="M186.16,76.84c0.01,0.16,0.02,0.33,0.02,0.49c-0.01,1.86-0.63,3.42-1.87,4.69c-1.23,1.26-2.77,1.9-4.62,1.9
			c-1.95,0-3.58-0.65-4.88-1.94c-1.31-1.29-1.96-2.9-1.96-4.81c0-1.91,0.67-3.53,2-4.85s2.97-1.98,4.92-1.98
			c0.63,0,1.23,0.07,1.79,0.21c0.57,0.14,1.03,0.3,1.4,0.49c0.36,0.19,0.68,0.38,0.96,0.58c0.28,0.19,0.48,0.36,0.6,0.5l0.19,0.21
			l-1.51,1.53c-0.04-0.04-0.09-0.09-0.15-0.16c-0.06-0.07-0.2-0.19-0.42-0.37c-0.21-0.18-0.45-0.33-0.7-0.46
			c-0.25-0.13-0.58-0.25-0.97-0.36c-0.4-0.11-0.81-0.16-1.23-0.16c-1.35,0-2.47,0.46-3.37,1.38c-0.9,0.92-1.35,2.06-1.35,3.43
			s0.45,2.51,1.35,3.43c0.9,0.92,2.02,1.38,3.37,1.38c1.08,0,2.01-0.32,2.79-0.96s1.25-1.49,1.41-2.55h-4.28v-1.6H186.16z"/>
		<path class="st2" d="M192.5,83.73v-13.2h5.69c1.36,0,2.46,0.39,3.31,1.16s1.27,1.77,1.27,2.99c0,0.94-0.27,1.77-0.82,2.48
			s-1.29,1.19-2.22,1.44l3.6,5.13h-2.55l-3.33-4.85h-2.79v4.85H192.5z M197.93,72.38h-3.26v4.81h3.26c0.82,0,1.47-0.23,1.95-0.68
			c0.48-0.45,0.73-1.03,0.73-1.73s-0.24-1.28-0.73-1.73C199.39,72.6,198.74,72.38,197.93,72.38z"/>
		<path class="st2" d="M218.89,83.73h-9.62v-13.2h9.43v1.89h-7.26v3.6h6.32v1.77h-6.32v4.05h7.45V83.73z"/>
		<path class="st2" d="M234.83,83.73h-9.62v-13.2h9.43v1.89h-7.26v3.6h6.32v1.77h-6.32v4.05h7.45V83.73z"/>
		<path class="st2" d="M250.53,83.73l-7.26-9.97v9.97h-2.13v-13.2h2.28l7.11,9.77v-9.77h2.11v13.2H250.53z"/>
		<path class="st2" d="M263.55,83.73l-5.43-13.2h2.43l4.14,10.4l4.12-10.4h2.32l-5.41,13.2H263.55z"/>
		<path class="st2" d="M276.69,83.73v-13.2h2.24v13.2H276.69z"/>
		<path class="st2" d="M286.1,70.53h5.66c1.21,0,2.18,0.31,2.91,0.93c0.74,0.62,1.1,1.42,1.1,2.39c0,0.64-0.17,1.22-0.52,1.74
			s-0.82,0.93-1.42,1.22c0.79,0.24,1.41,0.65,1.87,1.23c0.45,0.58,0.68,1.27,0.68,2.06c0,1.03-0.4,1.89-1.21,2.58
			c-0.8,0.69-1.84,1.04-3.09,1.04h-5.98V70.53z M288.26,76.11h3.05c0.69,0,1.24-0.19,1.66-0.56c0.41-0.37,0.62-0.83,0.62-1.39
			c0-0.54-0.21-1-0.62-1.38c-0.42-0.38-0.97-0.57-1.66-0.57h-3.05V76.11z M288.26,77.69v4.34h3.45c0.75,0,1.36-0.21,1.81-0.62
			c0.45-0.41,0.68-0.93,0.68-1.55c0-0.62-0.23-1.13-0.68-1.55c-0.45-0.42-1.06-0.62-1.81-0.62H288.26z"/>
		<path class="st2" d="M312.4,83.73h-9.62v-13.2h9.43v1.89h-7.26v3.6h6.32v1.77h-6.32v4.05h7.45V83.73z"/>
		<path class="st2" d="M323.04,76.03c2.59,0.91,3.88,2.26,3.88,4.07c0,1.09-0.42,2-1.25,2.72c-0.84,0.72-1.95,1.08-3.33,1.08
			c-0.59,0-1.16-0.07-1.72-0.2c-0.55-0.13-1.01-0.29-1.38-0.47c-0.36-0.18-0.69-0.36-0.96-0.55c-0.28-0.18-0.48-0.34-0.6-0.48
			l-0.19-0.19l1.3-1.4c0.11,0.11,0.27,0.25,0.46,0.41c0.2,0.16,0.62,0.38,1.26,0.66c0.65,0.28,1.3,0.42,1.97,0.42
			c0.65,0,1.19-0.17,1.6-0.51s0.62-0.76,0.62-1.26c0-0.57-0.24-1.05-0.71-1.46c-0.47-0.41-1.32-0.83-2.55-1.27
			c-2.2-0.82-3.3-2.05-3.3-3.7c0-1.03,0.41-1.89,1.22-2.56s1.87-1.02,3.18-1.02c0.52,0,1.02,0.06,1.51,0.17
			c0.49,0.11,0.9,0.25,1.22,0.4s0.6,0.31,0.85,0.46s0.42,0.29,0.54,0.41l0.17,0.17l-1.3,1.41c-0.09-0.09-0.21-0.2-0.37-0.34
			s-0.49-0.32-1-0.55c-0.51-0.23-1.03-0.34-1.58-0.34c-0.69,0-1.23,0.16-1.62,0.49c-0.39,0.33-0.58,0.7-0.58,1.11
			c0,0.49,0.2,0.91,0.59,1.25C321.37,75.33,322.05,75.68,323.04,76.03z"/>
	</g>
	<g>
		<path class="st2" d="M83.34,66.54V33.19h14.44c3.75,0,6.77,1.04,9.05,3.12c2.29,2.08,3.43,4.8,3.43,8.17
			c0,3.33-1.18,6.08-3.55,8.24c-2.37,2.16-5.42,3.24-9.17,3.24h-6.91v10.58H83.34z M97.06,39.33h-6.43v10.67h6.43
			c1.78,0,3.22-0.5,4.31-1.5s1.64-2.28,1.64-3.84c0-1.56-0.55-2.83-1.64-3.84S98.84,39.33,97.06,39.33z"/>
		<path class="st2" d="M139.56,66.54h-23.58V33.19h7.29v26.87h16.29V66.54z"/>
		<path class="st2" d="M161.95,33.19l13.1,33.35h-7.97l-2.61-7h-13.44l-2.68,7h-7.61l13.37-33.35H161.95z M157.71,41.53l-4.67,12.24
			h9.29L157.71,41.53z"/>
		<path class="st2" d="M201.78,66.54l-15.82-22.49v22.49h-7.1V33.19h7.55l15.36,21.92V33.19h7.1v33.35H201.78z"/>
		<path class="st2" d="M240.08,39.52h-9.72v27.01h-7.24V39.52h-9.72v-6.34h26.68V39.52z"/>
		<path class="st2" d="M244.85,66.54V33.19h7.48v33.35H244.85z"/>
		<path class="st2" d="M283.1,66.54l-15.82-22.49v22.49h-7.1V33.19h7.55l15.36,21.92V33.19h7.1v33.35H283.1z"/>
		<path class="st2" d="M313.31,48.43h16.58c0.06,0.6,0.1,1.22,0.1,1.86c-0.03,4.73-1.58,8.7-4.65,11.91
			c-3.07,3.21-7,4.81-11.79,4.81c-4.95,0-9.09-1.64-12.41-4.91c-3.32-3.27-4.98-7.32-4.98-12.15c0-4.83,1.7-8.91,5.1-12.24
			c3.4-3.33,7.58-5,12.53-5c1.65,0,3.22,0.18,4.69,0.52c1.48,0.35,2.68,0.78,3.62,1.29c0.94,0.51,1.76,1.02,2.48,1.52
			c0.71,0.51,1.23,0.94,1.55,1.29l0.43,0.52L321.5,43c-0.06-0.1-0.17-0.22-0.31-0.38c-0.14-0.16-0.46-0.45-0.95-0.88
			c-0.49-0.43-1.02-0.8-1.57-1.12c-0.56-0.32-1.29-0.6-2.19-0.86c-0.91-0.25-1.85-0.38-2.83-0.38c-2.95,0-5.4,1-7.34,3
			c-1.94,2-2.91,4.51-2.91,7.53c0,3.02,0.97,5.53,2.91,7.55c1.94,2.02,4.38,3.03,7.34,3.03c2.32,0,4.27-0.61,5.86-1.83
			c1.59-1.22,2.59-2.88,3-4.98h-9.2V48.43z"/>
	</g>
	<path class="st2" d="M66.6,124.03c-2.42-0.95-5.08-1.53-7.22-2.91c-13.49-8.68-26.89-17.5-40.25-26.39
		c-1.76-1.17-3.28-2.81-4.61-4.48c-1.51-1.9-1.94-4.18-1.13-6.59c1.2-3.57,4.99-5.59,9.16-4.76c1.67,0.33,3.3,0.89,4.56,1.24
		c1.31-1.79,2.31-3.65,3.77-5.03c2.76-2.6,6.21-2.56,9.68-1.79c0.63,0.14,1.09,0.19,1.52-0.44c1.21-1.79,2.76-3.19,4.84-3.84
		c-0.98-3.81-1.94-7.57-2.85-11.11c-1.81,0.12-3.64,0.56-5.37,0.29c-6.69-1.04-11.65-7.07-12.04-14.11
		c-0.38-6.74,1.9-12.57,5.92-17.78c6.15-7.97,14.45-13.04,23.48-17.06c1.64-0.73,3.23,0.47,3.09,2.32
		c-0.17,2.32,0.52,4.36,1.67,6.27c1.81,3.01,3.75,5.94,5.58,8.94c3.88,6.34,5.57,13.11,3.98,20.52
		c-1.48,6.91-7.07,11.81-14.12,12.11c-2.37,0.1-4.76-0.27-7.21-0.42c0.23,0.97,0.46,2.11,0.77,3.24c0.56,2.03,1.16,4.05,1.65,5.76
		c1.77,0.43,3.38,0.56,4.74,1.22c1.39,0.67,2.53,1.85,3.85,2.86c3.51-1.67,6.47-1.88,8.94,0.15c1.99,1.64,3.87,2.67,6.52,2.7
		c2.45,0.03,4.21,1.73,5.42,3.63c1.84-1.08,3.49-2.31,5.34-3.08c6.65-2.77,13.52-2.96,20.19-0.39c6.85,2.65,13.48,5.87,20.2,8.87
		c0.45,0.2,0.81,0.6,1.21,0.9c0,0.85,0,1.7,0,2.54c-1.13,1.2-2.32,1.14-3.78,0.47c-5.95-2.74-11.95-5.39-17.94-8.04
		c-4.92-2.18-10.04-2.11-15.2-1.19c-3.08,0.55-5.59,2.13-7.6,4.51c-2.09,2.48-4.51,4.44-7.67,5.41c-5.76,1.77-11.58,3.16-17.64,3.39
		c-1.41,0.05-2.84,0.4-4.2,0.81c-1.23,0.38-1.86,1.3-1.82,2.72c0.04,1.34,0.77,2.03,1.87,2.41c0.95,0.32,1.96,0.68,2.94,0.68
		c9.68,0.09,19.41,0.83,28.89-2.02c1.45-0.44,2.64,0.28,2.98,1.57c0.35,1.32-0.31,2.59-1.77,2.9c-3.72,0.78-7.44,1.78-11.21,2.05
		c-5.48,0.4-11.01,0.28-16.52,0.3c-3.65,0.01-6.93-0.79-10.07-3.07C42.43,95.4,35.4,90.9,28.43,86.31
		c-1.47-0.97-3.13-1.69-4.78-2.32c-1.04-0.4-2.22-0.56-3.35-0.59c-1.86-0.05-3.77,1.97-2.08,4.07c1.1,1.37,2.41,2.62,3.82,3.66
		c2.66,1.96,5.44,3.75,8.21,5.55c10.31,6.74,20.68,13.4,30.94,20.22c4.43,2.94,8.86,3.2,13.55,0.89c1.89-0.94,3.79-1.86,5.68-2.83
		c5.72-2.93,11.43-5.89,17.15-8.83c3.45-1.77,6.83-1.66,10.11,0.47c2.24,1.45,4.49,2.88,6.72,4.35c1.35,0.89,1.71,2.21,0.99,3.36
		c-0.75,1.2-2.15,1.41-3.56,0.52c-1.5-0.95-3.11-1.79-4.45-2.93c-3.28-2.79-6.35-2.45-10.09-0.56
		c-8.83,4.47-17.09,10.19-26.86,12.67C69.15,124.03,67.87,124.03,66.6,124.03z M34.18,32.65c-2.6,4.64-3.62,9.58-1.89,14.78
		c1.14,3.44,3.51,5.61,7.15,6.25c0.08,0.01,0.17,0.05,0.25,0.03c0.98-0.21,2.01-0.3,2.93-0.66c1.4-0.55,0.6-1.81,0.53-2.66
		c-0.79-8.97,0.9-17.52,4.16-25.83c0.4-1.02,1-1.91,2.13-1.88c0.71,0.02,1.54,0.45,2.07,0.95c0.75,0.72,0.46,1.67,0.18,2.61
		c-1.22,4.08-2.59,8.14-3.49,12.29c-0.99,4.53-0.91,9.18-0.21,13.78c0.07,0.48,0.49,1.11,0.91,1.3c4.15,1.79,8.33,1.86,12.35-0.28
		c3.26-1.74,4.31-4.93,4.87-8.33c0.98-5.93-0.78-11.21-3.86-16.16c-1.14-1.83-2.34-3.63-3.53-5.43c-1.69-2.55-3.2-5.18-3.85-8.34
		C46.54,19.4,38.86,24.29,34.18,32.65z M55.96,87.46c5.07-0.4,10.11-0.86,15-2.34c1.66-0.5,3.3-1.05,4.91-1.67
		c1.68-0.65,1.88-1.9,0.56-3.19c-1.26-1.25-2.86-1.15-4.42-0.94c-2.1,0.29-2.56,0.1-3.5-1.77c-1.16-2.32-4.88-2.81-7.07-0.94
		c-1.77,1.52-2.99,1.34-4.21-0.62c-1.54-2.49-3.56-3.28-6.44-2.61c-0.68,0.16-1.45-0.06-2.14,0.1c-1.65,0.39-2.87,1.38-3.63,2.92
		c-1.04,2.13-1.8,2.42-4.03,1.56c-3.95-1.53-7.11-0.53-8.65,2.72c-0.88,1.85-0.81,2.09,0.9,3.24c4.73,3.19,9.47,6.38,14.34,9.67
		C48.94,89.37,52.11,87.76,55.96,87.46z"/>
</g>
</svg>
