<?xml version="1.0" encoding="utf-8"?>
<!-- Generator: Adobe Illustrator 23.0.2, SVG Export Plug-In . SVG Version: 6.00 Build 0)  -->
<svg version="1.1" xmlns="http://www.w3.org/2000/svg" xmlns:xlink="http://www.w3.org/1999/xlink" x="0px" y="0px"
	 viewBox="0 0 136.68 138.86" style="enable-background:new 0 0 136.68 138.86;" xml:space="preserve">
<style type="text/css">
	.st0{display:none;fill:none;}
	.st1{fill:#2E6463;}
</style>
<g id="Layer_1">
</g>
<g id="Layer_2">
	<path class="st0" d="M-75.73,437.39c0,0-37.03-61.43-109.89-59.42s-123.08,63.36-124.61,120.24s41.28,131.27,119.85,132.75
		c56.87,0.92,73.31-24.75,73.31-24.75c17.96-20.77,57.92-116.64,57.92-116.64l-101.4-0.06c0,0-6.8,18.53-14.68,39.5
		c-10.31,27.44-22.45,59.08-23.62,58.95c-2.06-0.23-66.73-63.75-66.96-65.12c-0.23-1.38,38.06-92.87,39.44-94.24
		s104.33-11.69,107.08-11.46C-116.54,417.36-75.73,437.39-75.73,437.39z"/>
	<path class="st1" d="M66.6,124.03c-2.42-0.95-5.08-1.53-7.22-2.91c-13.49-8.68-26.89-17.5-40.25-26.39
		c-1.76-1.17-3.28-2.81-4.61-4.48c-1.51-1.9-1.94-4.18-1.13-6.59c1.2-3.57,4.99-5.59,9.16-4.76c1.67,0.33,3.3,0.89,4.56,1.24
		c1.31-1.79,2.31-3.65,3.77-5.03c2.76-2.6,6.21-2.56,9.68-1.79c0.63,0.14,1.09,0.19,1.52-0.44c1.21-1.79,2.76-3.19,4.84-3.84
		c-0.98-3.81-1.94-7.57-2.85-11.11c-1.81,0.12-3.64,0.56-5.37,0.29c-6.69-1.04-11.65-7.07-12.04-14.11
		c-0.38-6.74,1.9-12.57,5.92-17.78c6.15-7.97,14.45-13.04,23.48-17.06c1.64-0.73,3.23,0.47,3.09,2.32
		c-0.17,2.32,0.52,4.36,1.67,6.27c1.81,3.01,3.75,5.94,5.58,8.94c3.88,6.34,5.57,13.11,3.98,20.52
		c-1.48,6.91-7.07,11.81-14.12,12.11c-2.37,0.1-4.76-0.27-7.21-0.42c0.23,0.97,0.46,2.11,0.77,3.24c0.56,2.03,1.16,4.05,1.65,5.76
		c1.77,0.43,3.38,0.56,4.74,1.22c1.39,0.67,2.53,1.85,3.85,2.86c3.51-1.67,6.47-1.88,8.94,0.15c1.99,1.64,3.87,2.67,6.52,2.7
		c2.45,0.03,4.21,1.73,5.42,3.63c1.84-1.08,3.49-2.31,5.34-3.08c6.65-2.77,13.52-2.96,20.19-0.39c6.85,2.65,13.48,5.87,20.2,8.87
		c0.45,0.2,0.81,0.6,1.21,0.9c0,0.85,0,1.7,0,2.54c-1.13,1.2-2.32,1.14-3.78,0.47c-5.95-2.74-11.95-5.39-17.94-8.04
		c-4.92-2.18-10.04-2.11-15.2-1.19c-3.08,0.55-5.59,2.13-7.6,4.51c-2.09,2.48-4.51,4.44-7.67,5.41c-5.76,1.77-11.58,3.16-17.64,3.39
		c-1.41,0.05-2.84,0.4-4.2,0.81c-1.23,0.38-1.86,1.3-1.82,2.72c0.04,1.34,0.77,2.03,1.87,2.41c0.95,0.32,1.96,0.68,2.94,0.68
		c9.68,0.09,19.41,0.83,28.89-2.02c1.45-0.44,2.64,0.28,2.98,1.57c0.35,1.32-0.31,2.59-1.77,2.9c-3.72,0.78-7.44,1.78-11.21,2.05
		c-5.48,0.4-11.01,0.28-16.52,0.3c-3.65,0.01-6.93-0.79-10.07-3.07C42.43,95.4,35.4,90.9,28.43,86.31
		c-1.47-0.97-3.13-1.69-4.78-2.32c-1.04-0.4-2.22-0.56-3.35-0.59c-1.86-0.05-3.77,1.97-2.08,4.07c1.1,1.37,2.41,2.62,3.82,3.66
		c2.66,1.96,5.44,3.75,8.21,5.55c10.31,6.74,20.68,13.4,30.94,20.22c4.43,2.94,8.86,3.2,13.55,0.89c1.89-0.94,3.79-1.86,5.68-2.83
		c5.72-2.93,11.43-5.89,17.15-8.83c3.45-1.77,6.83-1.66,10.11,0.47c2.24,1.45,4.49,2.88,6.72,4.35c1.35,0.89,1.71,2.21,0.99,3.36
		c-0.75,1.2-2.15,1.41-3.56,0.52c-1.5-0.95-3.11-1.79-4.45-2.93c-3.28-2.79-6.35-2.45-10.09-0.56
		c-8.83,4.47-17.09,10.19-26.86,12.67C69.15,124.03,67.87,124.03,66.6,124.03z M34.18,32.65c-2.6,4.64-3.62,9.58-1.89,14.78
		c1.14,3.44,3.51,5.61,7.15,6.25c0.08,0.01,0.17,0.05,0.25,0.03c0.98-0.21,2.01-0.3,2.93-0.66c1.4-0.55,0.6-1.81,0.53-2.66
		c-0.79-8.97,0.9-17.52,4.16-25.83c0.4-1.02,1-1.91,2.13-1.88c0.71,0.02,1.54,0.45,2.07,0.95c0.75,0.72,0.46,1.67,0.18,2.61
		c-1.22,4.08-2.59,8.14-3.49,12.29c-0.99,4.53-0.91,9.18-0.21,13.78c0.07,0.48,0.49,1.11,0.91,1.3c4.15,1.79,8.33,1.86,12.35-0.28
		c3.26-1.74,4.31-4.93,4.87-8.33c0.98-5.93-0.78-11.21-3.86-16.16c-1.14-1.83-2.34-3.63-3.53-5.43c-1.69-2.55-3.2-5.18-3.85-8.34
		C46.54,19.4,38.86,24.29,34.18,32.65z M55.96,87.46c5.07-0.4,10.11-0.86,15-2.34c1.66-0.5,3.3-1.05,4.91-1.67
		c1.68-0.65,1.88-1.9,0.56-3.19c-1.26-1.25-2.86-1.15-4.42-0.94c-2.1,0.29-2.56,0.1-3.5-1.77c-1.16-2.32-4.88-2.81-7.07-0.94
		c-1.77,1.52-2.99,1.34-4.21-0.62c-1.54-2.49-3.56-3.28-6.44-2.61c-0.68,0.16-1.45-0.06-2.14,0.1c-1.65,0.39-2.87,1.38-3.63,2.92
		c-1.04,2.13-1.8,2.42-4.03,1.56c-3.95-1.53-7.11-0.53-8.65,2.72c-0.88,1.85-0.81,2.09,0.9,3.24c4.73,3.19,9.47,6.38,14.34,9.67
		C48.94,89.37,52.11,87.76,55.96,87.46z"/>
</g>
</svg>
